<?xml version="1.0" encoding="UTF-8" standalone="no"?>
<!DOCTYPE svg PUBLIC "-//W3C//DTD SVG 1.1//EN" "http://www.w3.org/Graphics/SVG/1.1/DTD/svg11.dtd">
<svg width="100%" height="100%" viewBox="0 0 94 118" version="1.1" xmlns="http://www.w3.org/2000/svg" xmlns:xlink="http://www.w3.org/1999/xlink" xml:space="preserve" xmlns:serif="http://www.serif.com/" style="fill-rule:evenodd;clip-rule:evenodd;">
    <rect x="1" y="1" width="92" height="116" style="fill:none;stroke:black;stroke-width:2px;"/>
    <g transform="matrix(1,0,0,1,0,-5.896)">
        <rect x="1.25" y="39" width="91" height="45.896"/>
    </g>
    <g transform="matrix(1,0,0,1,0,-8.334)">
        <rect x="63" y="50.667" width="20" height="25" style="fill:rgb(154,154,154);"/>
    </g>
    <g transform="matrix(1,0,0,1,0,-7.666)">
        <path d="M60.375,66.333C62.308,66.333 63.875,64.766 63.875,62.833C63.875,60.9 62.308,59.333 60.375,59.333C58.442,59.333 56.875,60.9 56.875,62.833C56.875,64.766 58.442,66.333 60.375,66.333" style="fill:rgb(154,154,154);fill-rule:nonzero;"/>
    </g>
    <g transform="matrix(1,0,0,1,0,-7.666)">
        <path d="M85.375,66.333C87.308,66.333 88.875,64.766 88.875,62.833C88.875,60.9 87.308,59.333 85.375,59.333C83.442,59.333 81.875,60.9 81.875,62.833C81.875,64.766 83.442,66.333 85.375,66.333" style="fill:rgb(154,154,154);fill-rule:nonzero;"/>
    </g>
    <g transform="matrix(1,0,0,1,0,23)">
        <path d="M72.833,51C74.766,51 76.333,49.433 76.333,47.5C76.333,45.567 74.766,44 72.833,44C70.9,44 69.333,45.567 69.333,47.5C69.333,49.433 70.9,51 72.833,51" style="fill:rgb(154,154,154);fill-rule:nonzero;"/>
    </g>
    <g transform="matrix(1,0,0,1,0,-8)">
        <rect x="33.5" y="50.5" width="21" height="25" style="fill:white;"/>
    </g>
    <g transform="matrix(1,0,0,1,0,23.75)">
        <path d="M44,50.625C45.933,50.625 47.5,49.058 47.5,47.125C47.5,45.192 45.933,43.625 44,43.625C42.067,43.625 40.5,45.192 40.5,47.125C40.5,49.058 42.067,50.625 44,50.625" style="fill:white;fill-rule:nonzero;"/>
    </g>
    <g transform="matrix(1,0,0,1,0,-39.334)">
        <path d="M44,82.167C45.933,82.167 47.5,80.6 47.5,78.667C47.5,76.734 45.933,75.167 44,75.167C42.067,75.167 40.5,76.734 40.5,78.667C40.5,80.6 42.067,82.167 44,82.167" style="fill:white;fill-rule:nonzero;"/>
    </g>
    <g transform="matrix(1,0,0,1,0,-82.458)">
        <path d="M10.922,88.465C13.022,88.465 14.267,91.708 14.267,95.227C14.267,97.815 13.681,99.746 12.512,100.988C13.561,102.196 13.877,105.094 15.316,111.993L12.512,111.993C11.417,106.957 11.012,102.437 9.632,102.437L8.897,102.437L8.897,111.993L6.347,111.993L6.347,88.465L10.922,88.465ZM8.897,98.125L10.247,98.125C10.952,98.125 11.642,97.435 11.642,95.434C11.642,93.675 11.147,92.778 10.187,92.778L8.897,92.778L8.897,98.125" style="fill:rgb(5,5,5);fill-rule:nonzero;"/>
    </g>
    <g transform="matrix(1,0,0,1,0,-82.458)">
        <path d="M24.073,111.993L16.528,111.993L16.528,88.465L23.968,88.465L23.968,92.778L19.078,92.778L19.078,97.711L23.743,97.711L23.743,102.023L19.078,102.023L19.078,107.681L24.073,107.681L24.073,111.993" style="fill:rgb(5,5,5);fill-rule:nonzero;"/>
    </g>
    <g transform="matrix(1,0,0,1,0,-82.457)">
        <path d="M32.889,94.571C31.404,93.053 30.519,92.466 29.649,92.466C28.735,92.466 28.15,93.225 28.15,94.398C28.15,97.952 33.354,96.951 33.354,105.162C33.354,109.681 31.704,112.303 29.425,112.303C27.64,112.303 26.755,111.234 25.735,110.026L25.735,104.955C27.205,107.197 28.105,107.991 29.23,107.991C30.205,107.991 30.729,107.197 30.729,105.817C30.729,101.953 25.525,103.368 25.525,94.916C25.525,90.845 27.055,88.154 29.425,88.154C30.565,88.154 31.599,88.706 32.889,89.982L32.889,94.571" style="fill:rgb(5,5,5);fill-rule:nonzero;"/>
    </g>
    <g transform="matrix(1,0,0,1,0,-82.458)">
        <path d="M42.651,111.993L35.106,111.993L35.106,88.465L42.546,88.465L42.546,92.778L37.656,92.778L37.656,97.711L42.321,97.711L42.321,102.023L37.656,102.023L37.656,107.681L42.651,107.681L42.651,111.993" style="fill:rgb(5,5,5);fill-rule:nonzero;"/>
    </g>
    <g transform="matrix(1,0,0,1,0,-82.458)">
        <path d="M55.127,111.993L52.382,111.993L51.542,107.336L46.967,107.336L46.203,111.993L43.503,111.993L47.627,88.465L50.582,88.465L55.127,111.993ZM49.142,94.089L47.642,103.231L50.792,103.231L49.142,94.089" style="fill:rgb(5,5,5);fill-rule:nonzero;"/>
    </g>
    <g transform="matrix(1,0,0,1,0,-82.458)">
        <path d="M60.884,88.465C62.984,88.465 64.229,91.708 64.229,95.227C64.229,97.815 63.644,99.746 62.474,100.988C63.524,102.196 63.839,105.094 65.279,111.993L62.474,111.993C61.379,106.957 60.974,102.437 59.594,102.437L58.859,102.437L58.859,111.993L56.309,111.993L56.309,88.465L60.884,88.465ZM58.859,98.125L60.209,98.125C60.914,98.125 61.604,97.435 61.604,95.434C61.604,93.675 61.109,92.778 60.149,92.778L58.859,92.778L58.859,98.125" style="fill:rgb(5,5,5);fill-rule:nonzero;"/>
    </g>
    <g transform="matrix(1,0,0,1,0,-82.457)">
        <path d="M76,109.957C74.575,111.648 73.495,112.303 71.98,112.303C68.005,112.303 66.025,106.369 66.025,100.297C66.025,94.019 68.26,88.154 72.175,88.154C73.6,88.154 74.875,88.844 75.88,90.224L75.88,95.468C74.755,94.019 73.615,93.053 72.355,93.053C70.18,93.053 68.65,96.02 68.65,100.194C68.65,104.403 70.165,107.404 72.295,107.404C73.63,107.404 74.53,106.438 76,104.817L76,109.957" style="fill:rgb(5,5,5);fill-rule:nonzero;"/>
    </g>
    <g transform="matrix(1,0,0,1,0,-82.458)">
        <path d="M88.24,111.993L85.69,111.993L85.69,102.472L80.59,102.472L80.59,111.993L78.04,111.993L78.04,88.465L80.59,88.465L80.59,97.918L85.69,97.918L85.69,88.465L88.24,88.465L88.24,111.993" style="fill:rgb(5,5,5);fill-rule:nonzero;"/>
    </g>
    <g transform="matrix(1,0,0,1,0,49.86)">
        <path d="M32.011,32.594C31.119,32.198 30.588,32.045 30.066,32.045C29.517,32.045 29.166,32.243 29.166,32.549C29.166,33.476 32.289,33.215 32.289,35.357C32.289,36.537 31.299,37.221 29.931,37.221C28.86,37.221 28.328,36.942 27.716,36.627L27.716,35.304C28.598,35.889 29.139,36.096 29.814,36.096C30.399,36.096 30.714,35.889 30.714,35.529C30.714,34.52 27.59,34.889 27.59,32.684C27.59,31.621 28.508,30.919 29.931,30.919C30.615,30.919 31.236,31.063 32.011,31.396L32.011,32.594" style="fill-rule:nonzero;"/>
    </g>
    <g transform="matrix(1,0,0,1,0,49.86)">
        <path d="M36.481,31C37.885,31 38.515,31.982 38.515,32.819C38.515,33.683 37.903,34.673 36.49,34.673L35.274,34.673L35.274,37.14L33.744,37.14L33.744,31L36.481,31ZM35.274,33.548L35.986,33.548C36.688,33.548 36.94,33.296 36.94,32.837C36.94,32.315 36.643,32.126 35.815,32.126L35.274,32.126L35.274,33.548" style="fill-rule:nonzero;"/>
    </g>
    <g transform="matrix(1,0,0,1,0,49.86)">
        <path d="M44.489,37.14L39.961,37.14L39.961,31L44.426,31L44.426,32.126L41.491,32.126L41.491,33.413L44.291,33.413L44.291,34.538L41.491,34.538L41.491,36.015L44.489,36.015L44.489,37.14" style="fill-rule:nonzero;"/>
    </g>
    <g transform="matrix(1,0,0,1,0,49.86)">
        <path d="M51.741,36.609C50.886,37.05 50.238,37.221 49.329,37.221C46.943,37.221 45.755,35.673 45.755,34.088C45.755,32.45 47.096,30.919 49.446,30.919C50.301,30.919 51.066,31.099 51.669,31.459L51.669,32.828C50.994,32.45 50.31,32.198 49.554,32.198C48.248,32.198 47.33,32.972 47.33,34.061C47.33,35.159 48.239,35.943 49.518,35.943C50.319,35.943 50.859,35.691 51.741,35.268L51.741,36.609" style="fill-rule:nonzero;"/>
    </g>
    <g transform="matrix(1,0,0,1,0,49.86)">
        <rect x="53.369" y="31" width="1.53" height="6.14"/>
    </g>
    <g transform="matrix(1,0,0,1,0,49.86)">
        <path d="M62.989,37.14L61.342,37.14L60.838,35.925L58.092,35.925L57.633,37.14L56.012,37.14L58.488,31L60.262,31L62.989,37.14ZM59.397,32.468L58.497,34.853L60.388,34.853L59.397,32.468" style="fill-rule:nonzero;"/>
    </g>
    <g transform="matrix(1,0,0,1,0,49.86)">
        <path d="M68.737,37.14L64.056,37.14L64.056,31L65.587,31L65.587,36.015L68.737,36.015L68.737,37.14" style="fill-rule:nonzero;"/>
    </g>
    <g transform="matrix(1,0,0,1,0,67.86)">
        <rect x="24.237" y="22" width="1.531" height="6.14"/>
    </g>
    <g transform="matrix(1,0,0,1,0,67.86)">
        <path d="M33.758,28.14L32.471,28.14L29.077,24.206L29.077,28.14L27.547,28.14L27.547,22L28.951,22L32.228,25.754L32.228,22L33.758,22L33.758,28.14" style="fill-rule:nonzero;"/>
    </g>
    <g transform="matrix(1,0,0,1,0,67.86)">
        <path d="M40.539,23.126L38.315,23.126L38.315,28.14L36.785,28.14L36.785,23.126L34.561,23.126L34.561,22L40.539,22L40.539,23.126" style="fill-rule:nonzero;"/>
    </g>
    <g transform="matrix(1,0,0,1,0,67.86)">
        <path d="M46.371,28.14L41.842,28.14L41.842,22L46.308,22L46.308,23.126L43.373,23.126L43.373,24.413L46.173,24.413L46.173,25.538L43.373,25.538L43.373,27.015L46.371,27.015L46.371,28.14" style="fill-rule:nonzero;"/>
    </g>
    <g transform="matrix(1,0,0,1,0,67.86)">
        <path d="M51.143,22C52.403,22 53.151,22.846 53.151,23.765C53.151,24.44 52.8,24.944 52.097,25.268C52.728,25.583 52.917,26.34 53.781,28.14L52.097,28.14C51.44,26.826 51.197,25.646 50.369,25.646L49.928,25.646L49.928,28.14L48.397,28.14L48.397,22L51.143,22ZM49.928,24.521L50.738,24.521C51.161,24.521 51.575,24.341 51.575,23.819C51.575,23.36 51.278,23.126 50.702,23.126L49.928,23.126L49.928,24.521" style="fill-rule:nonzero;"/>
    </g>
    <g transform="matrix(1,0,0,1,0,67.86)">
        <path d="M59.894,28.14L55.366,28.14L55.366,22L59.831,22L59.831,23.126L56.896,23.126L56.896,24.413L59.696,24.413L59.696,25.538L56.896,25.538L56.896,27.015L59.894,27.015L59.894,28.14" style="fill-rule:nonzero;"/>
    </g>
    <g transform="matrix(1,0,0,1,0,67.86)">
        <path d="M66.044,23.594C65.153,23.198 64.622,23.045 64.099,23.045C63.55,23.045 63.199,23.243 63.199,23.549C63.199,24.476 66.323,24.215 66.323,26.357C66.323,27.537 65.333,28.221 63.964,28.221C62.893,28.221 62.362,27.942 61.75,27.627L61.75,26.304C62.632,26.889 63.172,27.096 63.847,27.096C64.433,27.096 64.748,26.889 64.748,26.529C64.748,25.52 61.624,25.889 61.624,23.684C61.624,22.621 62.542,21.919 63.964,21.919C64.649,21.919 65.27,22.063 66.044,22.396L66.044,23.594" style="fill-rule:nonzero;"/>
    </g>
    <g transform="matrix(1,0,0,1,0,67.86)">
        <path d="M72.76,23.126L70.537,23.126L70.537,28.14L69.006,28.14L69.006,23.126L66.782,23.126L66.782,22L72.76,22L72.76,23.126" style="fill-rule:nonzero;"/>
    </g>
    <g transform="matrix(1,0,0,1,0,85.86)">
        <path d="M35.029,14.765C34.246,14.387 33.49,14.198 32.734,14.198C31.068,14.198 30.483,15.224 30.483,16.133C30.483,17.223 31.338,17.943 32.608,17.943C32.986,17.943 33.175,17.907 33.625,17.727L33.625,17.006L32.734,17.006L32.734,15.881L35.155,15.881L35.155,18.393C34.696,18.87 33.562,19.221 32.572,19.221C30.429,19.221 28.907,17.916 28.907,16.079C28.907,14.207 30.42,12.919 32.608,12.919C33.526,12.919 34.417,13.126 35.029,13.423L35.029,14.765" style="fill-rule:nonzero;"/>
    </g>
    <g transform="matrix(1,0,0,1,0,85.86)">
        <path d="M39.591,13C40.852,13 41.599,13.846 41.599,14.765C41.599,15.44 41.248,15.944 40.546,16.268C41.176,16.583 41.365,17.34 42.229,19.14L40.546,19.14C39.888,17.826 39.645,16.646 38.817,16.646L38.376,16.646L38.376,19.14L36.845,19.14L36.845,13L39.591,13ZM38.376,15.521L39.186,15.521C39.609,15.521 40.023,15.341 40.023,14.819C40.023,14.36 39.726,14.126 39.15,14.126L38.376,14.126L38.376,15.521" style="fill-rule:nonzero;"/>
    </g>
    <g transform="matrix(1,0,0,1,0,85.86)">
        <path d="M46.555,19.221C44.304,19.221 43.035,17.637 43.035,16.07C43.035,14.585 44.241,12.919 46.555,12.919C48.869,12.919 50.066,14.594 50.066,16.07C50.066,17.646 48.761,19.221 46.555,19.221ZM46.555,14.198C45.385,14.198 44.611,14.945 44.611,16.07C44.611,17.195 45.385,17.943 46.555,17.943C47.716,17.943 48.491,17.195 48.491,16.07C48.491,14.945 47.716,14.198 46.555,14.198" style="fill-rule:nonzero;"/>
    </g>
    <g transform="matrix(1,0,0,1,0,85.941)">
        <path d="M57.617,12.919L57.617,16.403C57.617,18.438 56.23,19.14 54.547,19.14C52.764,19.14 51.477,18.312 51.477,16.412L51.477,12.919L53.008,12.919L53.008,16.448C53.008,17.331 53.647,17.862 54.529,17.862C55.339,17.862 56.086,17.439 56.086,16.34L56.086,12.919L57.617,12.919" style="fill-rule:nonzero;"/>
    </g>
    <g transform="matrix(1,0,0,1,0,85.86)">
        <path d="M62.098,13C63.502,13 64.132,13.982 64.132,14.819C64.132,15.683 63.52,16.673 62.107,16.673L60.892,16.673L60.892,19.14L59.361,19.14L59.361,13L62.098,13ZM60.892,15.548L61.603,15.548C62.305,15.548 62.557,15.296 62.557,14.837C62.557,14.315 62.26,14.126 61.432,14.126L60.892,14.126L60.892,15.548" style="fill-rule:nonzero;"/>
    </g>
    <g transform="matrix(1,0,0,1,0,103.86)">
        <path d="M33.139,10.221C30.888,10.221 29.619,8.637 29.619,7.07C29.619,5.585 30.825,3.919 33.139,3.919C35.452,3.919 36.65,5.594 36.65,7.07C36.65,8.646 35.344,10.221 33.139,10.221ZM33.139,5.198C31.968,5.198 31.194,5.945 31.194,7.07C31.194,8.195 31.968,8.943 33.139,8.943C34.3,8.943 35.074,8.195 35.074,7.07C35.074,5.945 34.3,5.198 33.139,5.198" style="fill-rule:nonzero;"/>
    </g>
    <g transform="matrix(0,-1,-1,0,41.848,150.444)">
        <path d="M37.146,3.919C36.714,3.919 36.363,4.27 36.363,4.702C36.363,5.134 36.714,5.485 37.146,5.485C37.578,5.485 37.929,5.134 37.929,4.702C37.929,4.27 37.578,3.919 37.146,3.919" style="fill-rule:nonzero;"/>
    </g>
    <g transform="matrix(1,0,0,1,0,103.86)">
        <path d="M45.233,10.14L43.586,10.14L43.082,8.925L40.336,8.925L39.877,10.14L38.256,10.14L40.732,4L42.506,4L45.233,10.14ZM41.641,5.468L40.741,7.853L42.632,7.853L41.641,5.468" style="fill-rule:nonzero;"/>
    </g>
    <g transform="matrix(0,-1,-1,0,51.0335,159.63)">
        <path d="M46.332,3.919C45.9,3.919 45.549,4.27 45.549,4.702C45.549,5.135 45.9,5.486 46.332,5.486C46.764,5.486 47.115,5.135 47.115,4.702C47.115,4.27 46.764,3.919 46.332,3.919" style="fill-rule:nonzero;"/>
    </g>
    <g transform="matrix(1,0,0,1,0,103.86)">
        <path d="M50.3,4C52.542,4 53.694,5.396 53.694,7.079C53.694,8.844 52.578,10.14 50.129,10.14L47.59,10.14L47.59,4L50.3,4ZM49.121,9.015L50.12,9.015C51.659,9.015 52.119,7.97 52.119,7.07C52.119,6.017 51.551,5.126 50.102,5.126L49.121,5.126L49.121,9.015" style="fill-rule:nonzero;"/>
    </g>
    <g transform="matrix(0,-1,-1,0,59.408,168.004)">
        <path d="M54.706,3.919C54.274,3.919 53.923,4.27 53.923,4.702C53.923,5.134 54.274,5.485 54.706,5.485C55.138,5.485 55.489,5.134 55.489,4.702C55.489,4.27 55.138,3.919 54.706,3.919" style="fill-rule:nonzero;"/>
    </g>
    <g transform="matrix(1,0,0,1,0,103.86)">
        <path d="M59.675,4C61.916,4 63.069,5.396 63.069,7.079C63.069,8.844 61.952,10.14 59.504,10.14L56.965,10.14L56.965,4L59.675,4ZM58.495,9.015L59.495,9.015C61.034,9.015 61.493,7.97 61.493,7.07C61.493,6.017 60.926,5.126 59.477,5.126L58.495,5.126L58.495,9.015" style="fill-rule:nonzero;"/>
    </g>
    <g transform="matrix(0,-1,-1,0,68.783,177.379)">
        <path d="M64.081,3.919C63.649,3.919 63.298,4.27 63.298,4.702C63.298,5.134 63.649,5.485 64.081,5.485C64.513,5.485 64.864,5.134 64.864,4.702C64.864,4.27 64.513,3.919 64.081,3.919" style="fill-rule:nonzero;"/>
    </g>
    <g transform="matrix(1,0,0,1,0,23.77)">
        <path d="M29.875,50.615C31.808,50.615 33.375,49.048 33.375,47.115C33.375,45.183 31.808,43.615 29.875,43.615C27.942,43.615 26.375,45.183 26.375,47.115C26.375,49.048 27.942,50.615 29.875,50.615" style="fill:rgb(154,154,154);fill-rule:nonzero;"/>
    </g>
    <g transform="matrix(1,0,0,1,0,23.354)">
        <path d="M17.083,50.823C19.016,50.823 20.583,49.256 20.583,47.323C20.583,45.39 19.016,43.823 17.083,43.823C15.15,43.823 13.583,45.39 13.583,47.323C13.583,49.256 15.15,50.823 17.083,50.823" style="fill:rgb(154,154,154);fill-rule:nonzero;"/>
    </g>
    <g transform="matrix(1,0,0,1,0,-7.562)">
        <path d="M11.042,66.281C12.975,66.281 14.542,64.714 14.542,62.781C14.542,60.848 12.975,59.281 11.042,59.281C9.109,59.281 7.542,60.848 7.542,62.781C7.542,64.714 9.109,66.281 11.042,66.281" style="fill:rgb(154,154,154);fill-rule:nonzero;"/>
    </g>
    <g transform="matrix(1,0,0,1,0,-7.896)">
        <rect x="13.375" y="50.448" width="20" height="25" style="fill:rgb(154,154,154);"/>
    </g>
    <g transform="matrix(1,0,0,1,0,-39.23)">
        <path d="M23.708,82.115C25.641,82.115 27.208,80.548 27.208,78.615C27.208,76.683 25.641,75.115 23.708,75.115C21.775,75.115 20.208,76.683 20.208,78.615C20.208,80.548 21.775,82.115 23.708,82.115" style="fill:rgb(154,154,154);fill-rule:nonzero;"/>
    </g>
    <g transform="matrix(1,0,0,1,0,-7.896)">
        <path d="M36,66.448C37.933,66.448 39.5,64.881 39.5,62.948C39.5,61.015 37.933,59.448 36,59.448C34.067,59.448 32.5,61.015 32.5,62.948C32.5,64.881 34.067,66.448 36,66.448" style="fill:rgb(154,154,154);fill-rule:nonzero;"/>
    </g>
    <g transform="matrix(1,0,0,1,0,-7.666)">
        <path d="M52,66.333C53.933,66.333 55.5,64.766 55.5,62.833C55.5,60.9 53.933,59.333 52,59.333C50.067,59.333 48.5,60.9 48.5,62.833C48.5,64.766 50.067,66.333 52,66.333" style="fill-rule:nonzero;"/>
    </g>
    <g transform="matrix(1,0,0,1,0,-28.334)">
        <path d="M73,76.667C74.933,76.667 76.5,75.1 76.5,73.167C76.5,71.234 74.933,69.667 73,69.667C71.067,69.667 69.5,71.234 69.5,73.167C69.5,75.1 71.067,76.667 73,76.667" style="fill-rule:nonzero;"/>
    </g>
</svg>
